Coordinates
version=1
nRows=23
nColumns=23
inDegrees=yes

Units are S.I. units (second, meters, Newtons, ...)
If the header above contains a line with 'inDegrees', this indicates whether rotational values are in degrees (yes) or radians (no).

endheader
time	pelvis_tilt	pelvis_list	pelvis_rotation	pelvis_tx	pelvis_ty	pelvis_tz	hip_flexion_r	hip_adduction_r	hip_rotation_r	knee_angle_r	knee_angle_r_beta	ankle_angle_r	subtalar_angle_r	mtp_angle_r	hip_flexion_l	hip_adduction_l	hip_rotation_l	knee_angle_l	knee_angle_l_beta	ankle_angle_l	subtalar_angle_l	mtp_angle_l
     22.50000000	     -5.16177206	      6.76727031	      4.69525550	      2.14634639	      0.99171456	      0.97655942	    -10.31090757	     -8.04726367	    -14.06346734	     68.15131770	      1.18946488	    -12.85385385	     -9.60947625	      0.00000000	     29.80032276	      9.63079722	     -9.73341094	     14.00055093	      0.24435571	      1.09289949	      8.14514022	      0.00000000
     22.50666667	     -4.74792479	      7.43363087	      4.85370707	      2.14554014	      0.98694147	      0.97659909	     -9.42450347	     -8.86880209	    -13.79242731	     71.95914023	      1.25592392	    -13.18848758	    -11.33543373	      0.00000000	     29.62602747	      9.95348136	    -10.82648408	     16.35580827	      0.28546271	      1.19663274	      7.75386152	      0.00000000
     22.51333333	     -4.23061216	      8.14215096	      5.05650287	      2.14465379	      0.98203246	      0.97652676	     -8.61741609	     -9.73475222	    -13.56875638	     75.70524726	      1.32130583	    -13.50612430	    -13.04916243	      0.00000000	     29.28642923	     10.38660599	    -11.45025129	     18.82233045	      0.32851164	      1.34978756	      6.80076173	      0.00000000
     22.52000000	     -4.15176360	      8.62346646	      5.23461491	      2.14330930	      0.97624564	      0.97669657	     -7.12140347	    -10.35937173	    -13.13752319	     79.55121374	      1.38843060	    -13.69056663	    -14.89130919	      0.00000000	     29.61022835	     10.53021277	    -12.04880229	     21.80001122	      0.38048197	      1.71988854	      6.00342080	      0.00000000
     22.52666667	     -4.00382416	      9.11879906	      5.40426393	      2.14182242	      0.97047589	      0.97681802	     -5.63639281	    -11.04598559	    -12.72337391	     83.32114403	      1.45422830	    -13.81749925	    -16.57463357	      0.00000000	     29.83189847	     10.74370719	    -12.36491876	     24.86370108	      0.43395345	      2.43375100	      4.99040327	      0.00000000
     22.53333333	     -3.95781491	      9.56262915	      5.57930291	      2.14000155	      0.96455921	      0.97693596	     -3.91523230	    -11.68963496	    -12.22348212	     87.05719346	      1.51943466	    -13.83062189	    -18.08501255	      0.00000000	     30.17204327	     10.98950323	    -12.41227268	     28.01939685	      0.48903073	      3.53492812	      3.84852267	      0.00000000
     22.54000000	     -4.03917874	      9.94804309	      5.74930560	      2.13788286	      0.95861531	      0.97701046	     -1.92856791	    -12.31294939	    -11.64001543	     90.72572102	      1.58346255	    -13.71618116	    -19.38242404	      0.00000000	     30.64055178	     11.25514641	    -12.28711713	     31.21170586	      0.54474703	      4.97723046	      2.64493091	      0.00000000
     22.54666667	     -4.20991823	     10.26806257	      5.95492273	      2.13550295	      0.95279430	      0.97697071	      0.26753987	    -12.88589983	    -11.00438021	     94.28741580	      1.64562585	    -13.48710296	    -20.40931299	      0.00000000	     31.16094735	     11.55203959	    -11.99437640	     34.36513334	      0.59978472	      6.72328033	      1.52179936	      0.00000000
     22.55333333	     -4.42437342	     10.52123106	      6.10148861	      2.13286957	      0.94728321	      0.97698837	      2.66614437	    -13.37959453	    -10.21719803	     97.71404673	      1.70543184	    -13.13717384	    -21.14875944	      0.00000000	     31.64870151	     11.78829347	    -11.70991971	     37.39699770	      0.65270074	      8.71170144	      0.58770046	      0.00000000
     22.56000000	     -4.64496494	     10.69081152	      6.23605678	      2.13008578	      0.94221922	      0.97698880	      5.19024689	    -13.75062953	     -9.33478025	    100.95245733	      1.76195277	    -12.70842387	    -21.59346998	      0.00000000	     32.00580128	     11.97119525	    -11.36204127	     40.21295504	      0.70184847	     10.84610208	     -0.07445658	      0.00000000
     22.56666667	     -4.87723977	     10.78118706	      6.31543589	      2.12714746	      0.93764869	      0.97701494	      7.87258300	    -14.01444361	     -8.34262089	    103.98357554	      1.81485576	    -12.19612050	    -21.76426408	      0.00000000	     32.21211133	     12.06247813	    -11.01557145	     42.75284710	      0.74617795	     13.05930857	     -0.48534353	      0.00000000
     22.57333333	     -5.09149568	     10.82121657	      6.33573971	      2.12427304	      0.93362508	      0.97711507	     10.62784411	    -14.15230097	     -7.24155700	    106.76034451	      1.86331952	    -11.64782759	    -21.69977260	      0.00000000	     32.18743155	     12.07884328	    -10.67810906	     44.94692184	      0.78447177	     15.27451957	     -0.63859053	      0.00000000
     22.58000000	     -5.25398152	     10.75947453	      6.35646868	      2.12133890	      0.93025345	      0.97723818	     13.40548130	    -14.13158435	     -6.15425403	    109.25942357	      1.90693668	    -11.05104463	    -21.38638392	      0.00000000	     31.90795407	     11.99667479	    -10.26001003	     46.80702389	      0.81693668	     17.41278083	     -0.60733117	      0.00000000
     22.58666667	     -5.42081551	     10.63483153	      6.34174868	      2.11848765	      0.92743203	      0.97739950	     16.25085053	    -13.99677954	     -5.04474333	    111.46891446	      1.94549957	    -10.41287020	    -20.85619075	      0.00000000	     31.42160582	     11.82290157	     -9.86753255	     48.31676613	      0.84328665	     19.43743814	     -0.39708215	      0.00000000
     22.59333333	     -5.56144863	     10.50071639	      6.26831237	      2.11568546	      0.92521993	      0.97764367	     19.11096542	    -13.80748107	     -3.91570053	    113.37875980	      1.97883266	     -9.77502271	    -20.20903819	      0.00000000	     30.69164754	     11.60457034	     -9.52024568	     49.44410482	      0.86296242	     21.32177159	     -0.04990608	      0.00000000
     22.60000000	     -5.69371768	     10.33894061	      6.17619920	      2.11302929	      0.92363034	      0.97787063	     21.96594662	    -13.56653228	     -2.83254688	    114.96044466	      2.00643827	     -9.13071663	    -19.44845403	      0.00000000	     29.73953504	     11.34586907	     -9.20433090	     50.20536855	      0.87624898	     23.00367753	      0.38320235	      0.00000000
     22.60666667	     -5.77492115	     10.14503955	      6.06120237	      2.11055279	      0.92270027	      0.97809839	     24.73488167	    -13.26825137	     -1.83329350	    116.19187429	      2.02793077	     -8.44666125	    -18.55326796	      0.00000000	     28.53856486	     11.02722754	     -8.93652248	     50.63690465	      0.88378071	     24.47320013	      0.87205859	      0.00000000
     22.61333333	     -5.89592480	      9.99778646	      5.92091984	      2.10825227	      0.92232986	      0.97827150	     27.50237914	    -13.02718099	     -0.87126200	    117.08928687	      2.04359357	     -7.80699711	    -17.71505869	      0.00000000	     27.18228651	     10.75519667	     -8.73833147	     50.70365812	      0.88494578	     25.71426690	      1.40813456	      0.00000000
     22.62000000	     -5.73487295	      9.69302323	      5.97101803	      2.10639379	      0.92326302	      0.97816779	     29.69067164	    -12.69535300	     -0.37827111	    117.44747345	      2.04984511	     -7.43977078	    -17.35167044	      0.00000000	     25.29316614	     10.47718060	     -8.13485737	     50.37414227	      0.87919464	     26.55839383	      1.61176970	      0.00000000
     22.62666667	     -5.76419110	      9.58083214	      5.60579566	      2.10457751	      0.92414946	      0.97859630	     32.24342993	    -12.40495534	      0.53717462	    117.66677008	      2.05367256	     -6.55144573	    -16.23969391	      0.00000000	     23.50660873	     10.11846897	     -8.25488501	     49.82338269	      0.86958207	     27.38489087	      2.17406292	      0.00000000
     22.63333333	     -5.88069641	      9.22288895	      5.66957536	      2.10315261	      0.92586556	      0.97842260	     34.52808789	    -12.08572286	      0.78699759	    117.36183193	      2.04835038	     -6.14739826	    -15.97241364	      0.00000000	     21.65149306	      9.81130041	     -7.69440345	     48.96712715	      0.85463759	     27.74020288	      2.56745086	      0.00000000
     22.64000000	     -5.85334224	      9.09623751	      5.31030958	      2.10188754	      0.92804005	      0.97883460	     36.70383128	    -11.75712655	      1.41418080	    116.86157525	      2.03961926	     -5.24014559	    -15.12873405	      0.00000000	     19.51560494	      9.49800237	     -7.78049015	     47.82955568	      0.83478323	     27.97302444	      3.13729021	      0.00000000
     22.64666667	     -5.81920339	      8.82218689	      5.12405908	      2.10108420	      0.93093130	      0.97907977	     38.58010302	    -11.41010871	      1.61648843	    115.93286000	      2.02341012	     -4.42399557	    -14.48533057	      0.00000000	     17.25761354	      9.10974945	     -7.67193709	     46.46694188	      0.81100113	     27.95391766	      3.79282943	      0.00000000
